# xmcd CD database file
#
# Track frame offsets:
#	150
#	21677
#	46196
#	76038
#	96585
#	121145
#	145999
#	168849
#	192908
#	223150
#	237795
#	263474
#
# Disc length: 3785 seconds
#
# Revision: 0
# Processed by: cddbd v1.5.1PL0 Copyright (c) Steve Scherf et al.
# Submitted via: CDex 1.51
#
DISCID=a00ec70c
DTITLE=Joe Henderson - Double Rainbow
DYEAR=1900
DGENRE=Jazz
TTITLE0=Felicidade
TTITLE1=Dreamer
TTITLE2=Boto
TTITLE3=Ligia
TTITLE4=Once i loved
TTITLE5=Triste
TTITLE6=Photograph
TTITLE7=Portrait in black and white
TTITLE8=No more blues
TTITLE9=Happy madness
TTITLE10=Passarim
TTITLE11=Modinna
EXTD=
EXTT0=
EXTT1=
EXTT2=
EXTT3=
EXTT4=
EXTT5=
EXTT6=
EXTT7=
EXTT8=
EXTT9=
EXTT10=
EXTT11=
PLAYORDER=
